# xmcd
#
# Track frame offsets:
#	150
#	18687
#	38523
#	58447
#	76271
#	97320
#	120193
#	141097
#	156627
#	178885
#	196355
#	216201
#	234198
#
# Disc length: 3500 seconds
#
# Revision: 0
# Processed by: cddbd v1.5.1PL0 Copyright (c) Steve Scherf et al.
# Submitted via: EasyCDDAExtractor 8.0.1.1
#
DISCID=b80daa0d
DTITLE=Chris Rea - New Light Through Old Windows - The Best Of
DYEAR=1988
DGENRE=Blues
TTITLE0=Let's Dance
TTITLE1=Working On It
TTITLE2=Ace Of Hearts
TTITLE3=Josephine
TTITLE4=Candles
TTITLE5=On The Beach
TTITLE6=Fool (If You Think It's Over)
TTITLE7=I Can Hear Your Heartbeat
TTITLE8=Shamrock Diaries
TTITLE9=Stainsby Girls
TTITLE10=Windy Town
TTITLE11=Driving Home For Christmas
TTITLE12=Steel River
EXTD=
EXTT0=
EXTT1=
EXTT2=
EXTT3=
EXTT4=
EXTT5=
EXTT6=
EXTT7=
EXTT8=
EXTT9=
EXTT10=
EXTT11=
EXTT12=
PLAYORDER=
